<svg width="45" height="43" viewBox="0 0 45 43" fill="none" xmlns="http://www.w3.org/2000/svg">
<rect width="45" height="43" fill="#2A7361"/>
<path d="M32 8L33.593 11L37 11.414L34.5 13.667L35 17L32 15.125L29 17L29.5 13.667L27 11.414L30.5 11L32 8Z" fill="white"/>
<path d="M31.717 19.2491L29.779 18.7511C29.4316 20.0893 28.6954 21.2945 27.6633 22.2145C26.6312 23.1346 25.3497 23.728 23.9804 23.92C22.6112 24.112 21.2159 23.8938 19.9706 23.2931C18.7253 22.6924 17.686 21.7361 16.984 20.545C16.282 19.3538 15.9488 17.9814 16.0264 16.601C16.104 15.2206 16.5891 13.8941 17.4202 12.7893C18.2514 11.6844 19.3913 10.8506 20.6961 10.3934C22.0009 9.93607 23.412 9.87576 24.751 10.2201L25.25 8.28305C23.298 7.77531 21.2319 7.93873 19.384 8.74706C17.5361 9.5554 16.0137 10.9617 15.0616 12.7398C14.1094 14.5179 13.7829 16.5645 14.1345 18.5506C14.4861 20.5367 15.4953 22.3469 17 23.6901V36.0001L23 32.0001L29 36.0001V23.7081C30.3281 22.5243 31.2739 20.9721 31.717 19.2491ZM27 32.2631L23 29.5961L19 32.2631V25.0501C20.241 25.6735 21.6104 25.9987 22.9993 25.9997C24.3881 26.0008 25.758 25.6776 27 25.0561V32.2631Z" fill="white"/>
</svg>
